<svg width="1034" height="800" viewBox="0 0 129.25 100" xml:space="preserve" xmlns="http://www.w3.org/2000/svg"><path d="M13.266 81h73.469C89.087 81 91 78.967 91 76.614V26.165l.003.034c0-2.348-1.914-4.199-4.267-4.199H13.265C10.913 22 9 23.795 9 26.147v50.467C9 78.967 10.913 81 13.266 81zm25.259-31.878L13 74.442V29.89zM87 30.186v42.289L62.914 48.581zM59.723 51.02c.044.053.082.169.132.22L85.764 77H16.221l25.533-25.387 7.481 5.607c.356.268.779.388 1.203.388.428 0 .855-.144 1.214-.418zM86.047 26 50.431 53.202 14.326 26z" style="fill:bisque;fill-opacity:1" transform="matrix(1.56016 0 0 1.56016 -13.257 -30.643)"/></svg>